<svg xmlns="http://www.w3.org/2000/svg" viewBox="0 0 1200 400" role="img" aria-label="Die Lage wordmark">
  <defs>
    <linearGradient id="panel" x1="0" y1="0" x2="1" y2="1">
      <stop offset="0" stop-color="#171717"/>
      <stop offset="1" stop-color="#070707"/>
    </linearGradient>
    <linearGradient id="accent" x1="0" y1="0" x2="0" y2="1">
      <stop offset="0" stop-color="#ffc46b"/>
      <stop offset="1" stop-color="#ff9f2e"/>
    </linearGradient>
  </defs>
  <rect x="32" y="58" width="1136" height="284" rx="46" fill="url(#panel)"/>
  <rect x="78" y="94" width="9" height="212" rx="4.5" fill="url(#accent)"/>
  <text x="122" y="166" font-family="Noto Sans, Inter, Arial, sans-serif" font-size="70" font-weight="700" letter-spacing="-4" fill="url(#accent)">DL</text>
  <g fill="none" stroke="url(#accent)" stroke-width="8" stroke-linecap="round" stroke-linejoin="round">
    <path d="M254 158c0-20 16-36 36-36 15 0 28 9 34 23 4-1 8-2 13-2 19 0 35 15 35 34s-16 34-35 34h-83c-17 0-31-14-31-31s14-31 31-31z" transform="scale(.55) translate(210 76)"/>
    <path d="M350 86v-16M379 115h16M369 95l14-14"/>
  </g>
  <rect x="122" y="218" width="235" height="5" rx="2.5" fill="#565656" opacity="0.55"/>
  <path d="M130 292l32-40 30 24 39-61" fill="none" stroke="url(#accent)" stroke-width="9" stroke-linecap="round" stroke-linejoin="round"/>
  <rect x="260" y="276" width="14" height="32" rx="3" fill="#666" opacity="0.65"/>
  <rect x="286" y="260" width="14" height="48" rx="3" fill="#666" opacity="0.65"/>
  <rect x="312" y="242" width="14" height="66" rx="3" fill="#666" opacity="0.65"/>
  <rect x="338" y="214" width="14" height="94" rx="3" fill="url(#accent)"/>
  <text x="455" y="251" font-family="Noto Sans, Inter, Arial, sans-serif" font-size="162" font-weight="700" letter-spacing="-7" fill="url(#accent)">Die Lage</text>
</svg>
